<svg width="160" height="48" viewBox="0 0 160 48" fill="none" xmlns="http://www.w3.org/2000/svg">
  <rect width="160" height="48" rx="24" fill="#662AE7"/>
  <path d="M32 16C27.5817 16 24 19.5817 24 24C24 28.4183 27.5817 32 32 32C36.4183 32 40 28.4183 40 24C40 19.5817 36.4183 16 32 16ZM32 29.3333C29.0545 29.3333 26.6667 26.9455 26.6667 24C26.6667 21.0545 29.0545 18.6667 32 18.6667C34.9455 18.6667 37.3333 21.0545 37.3333 24C37.3333 26.9455 34.9455 29.3333 32 29.3333Z" fill="white"/>
  <path d="M58.0938 32L51.4375 17H55.125L59.9375 27.9375H60.0312L64.8438 17H68.5312L61.875 32H58.0938Z" fill="white"/>
  <path d="M71.2812 32V17H74.7812V32H71.2812Z" fill="white"/>
  <path d="M80.0938 32L73.4375 17H77.125L81.9375 27.9375H82.0312L86.8438 17H90.5312L83.875 32H80.0938Z" fill="white"/>
  <path d="M101.656 32.3438C99.4688 32.3438 97.7188 31.6875 96.4062 30.375C95.1146 29.0625 94.4688 27.3125 94.4688 25.125C94.4688 22.9375 95.1354 21.1979 96.4688 19.9062C97.8229 18.6146 99.6042 17.9688 101.812 17.9688C103.812 17.9688 105.427 18.5417 106.656 19.6875C107.885 20.8333 108.5 22.3854 108.5 24.3438C108.5 24.8021 108.479 25.2604 108.438 25.7188H97.9688C98.1771 26.8646 98.7292 27.75 99.625 28.375C100.521 29 101.594 29.3125 102.844 29.3125C104 29.3125 105.042 29.0938 105.969 28.6562C106.896 28.1979 107.594 27.5833 108.062 26.8125L107.875 26.6875C106.812 27.7917 105.333 28.3438 103.438 28.3438C101.771 28.3438 100.438 27.9271 99.4375 27.0938C98.4583 26.2604 97.9688 25.0729 97.9688 23.5312C97.9688 22.0104 98.4792 20.8125 99.5 19.9375C100.521 19.0625 101.948 18.625 103.781 18.625C105.781 18.625 107.333 19.1458 108.438 20.1875C109.542 21.2292 110.094 22.6771 110.094 24.5312C110.094 26.3646 109.5 27.8333 108.312 28.9375C107.125 30.0208 105.5 30.5625 103.438 30.5625Z" fill="white"/>
</svg>
